# xmcd CD database file
#
# Track frame offsets:
#	150
#	18825
#	39012
#
# Disc length: 765 seconds
#
# Revision: 0
# Processed by: cddbd v1.5PL3 Copyright (c) Steve Scherf et al.
# Submitted via: CDex 1.51
#
DISCID=1102fb03
DTITLE=平家みちよ - GET
DYEAR=1997
DGENRE=Rock
TTITLE0=GET
TTITLE1=プリペアー
TTITLE2=GET（オリジナル・カラオケ）
EXTD=YEAR: 1997
EXTT0=
EXTT1=
EXTT2=
PLAYORDER=
